<mxfile host="drawio-plugin" modified="2024-01-17T21:54:59.623Z" agent="5.0 (Windows NT 6.2; Win64; x64) AppleWebKit/537.36 (KHTML, like Gecko) Chrome/104.0.5112.102 Safari/537.36" etag="xJR7xSqm--vcdgbc34Zv" version="20.5.3" type="embed"><diagram id="23iRSUPoRavnBvh4doch" name="Page-1"><mxGraphModel dx="2540" dy="878" grid="1" gridSize="10" guides="1" tooltips="1" connect="1" arrows="1" fold="1" page="1" pageScale="1" pageWidth="827" pageHeight="1169" math="0" shadow="0"><root><mxCell id="0"/><mxCell id="1" parent="0"/><mxCell id="2" style="edgeStyle=orthogonalEdgeStyle;rounded=0;orthogonalLoop=1;jettySize=auto;html=1;entryX=0.5;entryY=0;entryDx=0;entryDy=0;fontColor=#FFFFFF;" edge="1" parent="1" source="3" target="5"><mxGeometry relative="1" as="geometry"/></mxCell><mxCell id="3" value="Початок" style="ellipse;whiteSpace=wrap;html=1;fontColor=#FFFFFF;" vertex="1" parent="1"><mxGeometry x="82.49" y="150" width="120" height="80" as="geometry"/></mxCell><mxCell id="4" style="edgeStyle=orthogonalEdgeStyle;rounded=0;orthogonalLoop=1;jettySize=auto;html=1;entryX=0.5;entryY=0;entryDx=0;entryDy=0;fontColor=#FFFFFF;" edge="1" parent="1" source="5" target="7"><mxGeometry relative="1" as="geometry"/></mxCell><mxCell id="5" value="Введення:&lt;br&gt;int [] array" style="shape=parallelogram;perimeter=parallelogramPerimeter;whiteSpace=wrap;html=1;fixedSize=1;fontColor=#FFFFFF;" vertex="1" parent="1"><mxGeometry x="82.5" y="290" width="120" height="60" as="geometry"/></mxCell><mxCell id="6" style="edgeStyle=orthogonalEdgeStyle;rounded=0;orthogonalLoop=1;jettySize=auto;html=1;entryX=0.5;entryY=0;entryDx=0;entryDy=0;fontColor=#FFFFFF;" edge="1" parent="1" source="7" target="10"><mxGeometry relative="1" as="geometry"/></mxCell><mxCell id="7" value="&lt;div style=&quot;background-color: rgb(43, 43, 43); font-family: &amp;quot;JetBrains Mono&amp;quot;, monospace;&quot;&gt;&lt;pre&gt;boolean swapped = &lt;span style=&quot;&quot;&gt;true;&lt;br&gt;&lt;/span&gt;&lt;span style=&quot;&quot;&gt;int &lt;/span&gt;start = &lt;span style=&quot;&quot;&gt;0&lt;/span&gt;&lt;span style=&quot;&quot;&gt;;&lt;br&gt;&lt;/span&gt;&lt;span style=&quot;&quot;&gt;int &lt;/span&gt;end = array.&lt;span style=&quot;&quot;&gt;length&lt;/span&gt;&lt;span style=&quot;&quot;&gt;;&lt;/span&gt;&lt;/pre&gt;&lt;/div&gt;" style="rounded=0;whiteSpace=wrap;html=1;fontColor=#FFFFFF;" vertex="1" parent="1"><mxGeometry x="40" y="412.5" width="180" height="80" as="geometry"/></mxCell><mxCell id="8" style="edgeStyle=orthogonalEdgeStyle;rounded=0;orthogonalLoop=1;jettySize=auto;html=1;entryX=0.5;entryY=0;entryDx=0;entryDy=0;fontColor=#FFFFFF;" edge="1" parent="1" source="10" target="12"><mxGeometry relative="1" as="geometry"/></mxCell><mxCell id="9" style="edgeStyle=orthogonalEdgeStyle;rounded=0;orthogonalLoop=1;jettySize=auto;html=1;entryX=0;entryY=0.5;entryDx=0;entryDy=0;fontColor=#FFFFFF;" edge="1" parent="1" source="10" target="41"><mxGeometry relative="1" as="geometry"/></mxCell><mxCell id="10" value="&lt;div style=&quot;background-color: rgb(43, 43, 43); font-family: &amp;quot;JetBrains Mono&amp;quot;, monospace;&quot;&gt;&lt;pre&gt;while (swapped == &lt;span style=&quot;&quot;&gt;true&lt;/span&gt;)&lt;/pre&gt;&lt;/div&gt;" style="shape=hexagon;perimeter=hexagonPerimeter2;whiteSpace=wrap;html=1;fixedSize=1;fontColor=#FFFFFF;" vertex="1" parent="1"><mxGeometry x="65" y="540" width="155" height="90" as="geometry"/></mxCell><mxCell id="11" style="edgeStyle=orthogonalEdgeStyle;rounded=0;orthogonalLoop=1;jettySize=auto;html=1;entryX=0.5;entryY=0;entryDx=0;entryDy=0;fontColor=#FFFFFF;" edge="1" parent="1" source="12" target="15"><mxGeometry relative="1" as="geometry"/></mxCell><mxCell id="12" value="&lt;div style=&quot;background-color: rgb(43, 43, 43); font-family: &amp;quot;JetBrains Mono&amp;quot;, monospace;&quot;&gt;&lt;pre&gt;swapped = false;&lt;/pre&gt;&lt;/div&gt;" style="rounded=0;whiteSpace=wrap;html=1;fontColor=#FFFFFF;" vertex="1" parent="1"><mxGeometry x="80" y="670" width="120" height="60" as="geometry"/></mxCell><mxCell id="13" style="edgeStyle=orthogonalEdgeStyle;rounded=0;orthogonalLoop=1;jettySize=auto;html=1;entryX=0.5;entryY=0;entryDx=0;entryDy=0;fontColor=#FFFFFF;" edge="1" parent="1" source="15" target="18"><mxGeometry relative="1" as="geometry"/></mxCell><mxCell id="14" style="edgeStyle=orthogonalEdgeStyle;rounded=0;orthogonalLoop=1;jettySize=auto;html=1;entryX=1;entryY=0.5;entryDx=0;entryDy=0;fontColor=#FFFFFF;" edge="1" parent="1" source="15" target="23"><mxGeometry relative="1" as="geometry"/></mxCell><mxCell id="15" value="&lt;div style=&quot;background-color: rgb(43, 43, 43); font-family: &amp;quot;JetBrains Mono&amp;quot;, monospace;&quot;&gt;&lt;pre&gt;&lt;span style=&quot;&quot;&gt;int &lt;/span&gt;i = start&lt;span style=&quot;&quot;&gt;; &lt;/span&gt;i &amp;lt; end - &lt;span style=&quot;&quot;&gt;1&lt;/span&gt;&lt;span style=&quot;&quot;&gt;; &lt;/span&gt;++i&lt;/pre&gt;&lt;/div&gt;" style="shape=hexagon;perimeter=hexagonPerimeter2;whiteSpace=wrap;html=1;fixedSize=1;fontColor=#FFFFFF;" vertex="1" parent="1"><mxGeometry x="24.379999999999995" y="775" width="231.25" height="90" as="geometry"/></mxCell><mxCell id="16" style="edgeStyle=orthogonalEdgeStyle;rounded=0;orthogonalLoop=1;jettySize=auto;html=1;entryX=0.5;entryY=0;entryDx=0;entryDy=0;fontColor=#FFFFFF;" edge="1" parent="1" source="18" target="20"><mxGeometry relative="1" as="geometry"/></mxCell><mxCell id="17" style="edgeStyle=orthogonalEdgeStyle;rounded=0;orthogonalLoop=1;jettySize=auto;html=1;entryX=1;entryY=0.5;entryDx=0;entryDy=0;fontColor=#FFFFFF;" edge="1" parent="1" source="18" target="15"><mxGeometry relative="1" as="geometry"><Array as="points"><mxPoint x="330" y="980"/><mxPoint x="330" y="820"/></Array></mxGeometry></mxCell><mxCell id="18" value="&lt;div style=&quot;background-color: rgb(43, 43, 43); font-family: &amp;quot;JetBrains Mono&amp;quot;, monospace;&quot;&gt;&lt;pre&gt;array[i] &amp;gt; array[i + 1]&lt;/pre&gt;&lt;/div&gt;" style="rhombus;whiteSpace=wrap;html=1;fontColor=#FFFFFF;" vertex="1" parent="1"><mxGeometry x="51.25" y="910" width="177.5" height="140" as="geometry"/></mxCell><mxCell id="19" style="edgeStyle=orthogonalEdgeStyle;rounded=0;orthogonalLoop=1;jettySize=auto;html=1;entryX=1;entryY=0.5;entryDx=0;entryDy=0;fontColor=#FFFFFF;" edge="1" parent="1" source="20" target="15"><mxGeometry relative="1" as="geometry"><Array as="points"><mxPoint x="330" y="1150"/><mxPoint x="330" y="820"/></Array></mxGeometry></mxCell><mxCell id="20" value="&lt;div style=&quot;background-color: rgb(43, 43, 43); font-family: &amp;quot;JetBrains Mono&amp;quot;, monospace;&quot;&gt;&lt;pre&gt;int temp = array[i]&lt;span style=&quot;&quot;&gt;;&lt;br&gt;&lt;/span&gt;array[i] = array[i + &lt;span style=&quot;&quot;&gt;1&lt;/span&gt;]&lt;span style=&quot;&quot;&gt;;&lt;br&gt;&lt;/span&gt;array[i + &lt;span style=&quot;&quot;&gt;1&lt;/span&gt;] = temp&lt;span style=&quot;&quot;&gt;;&lt;br&gt;&lt;/span&gt;swapped = &lt;span style=&quot;&quot;&gt;true;&lt;/span&gt;&lt;/pre&gt;&lt;/div&gt;" style="rounded=0;whiteSpace=wrap;html=1;fontColor=#FFFFFF;" vertex="1" parent="1"><mxGeometry x="46.5" y="1100" width="187" height="100" as="geometry"/></mxCell><mxCell id="21" style="edgeStyle=orthogonalEdgeStyle;rounded=0;orthogonalLoop=1;jettySize=auto;html=1;entryX=0.5;entryY=1;entryDx=0;entryDy=0;fontColor=#FFFFFF;" edge="1" parent="1" source="23" target="28"><mxGeometry relative="1" as="geometry"/></mxCell><mxCell id="22" style="edgeStyle=orthogonalEdgeStyle;rounded=0;orthogonalLoop=1;jettySize=auto;html=1;entryX=1;entryY=0.5;entryDx=0;entryDy=0;fontColor=#FFFFFF;" edge="1" parent="1" source="23" target="25"><mxGeometry relative="1" as="geometry"/></mxCell><mxCell id="23" value="&lt;div style=&quot;background-color: rgb(43, 43, 43); font-family: &amp;quot;JetBrains Mono&amp;quot;, monospace;&quot;&gt;&lt;pre&gt;swapped == false&lt;/pre&gt;&lt;/div&gt;" style="rhombus;whiteSpace=wrap;html=1;fontColor=#FFFFFF;" vertex="1" parent="1"><mxGeometry x="-230" y="772.5" width="130" height="95" as="geometry"/></mxCell><mxCell id="24" style="edgeStyle=orthogonalEdgeStyle;rounded=0;orthogonalLoop=1;jettySize=auto;html=1;entryX=1;entryY=0.5;entryDx=0;entryDy=0;fontColor=#FFFFFF;" edge="1" parent="1" source="25" target="26"><mxGeometry relative="1" as="geometry"/></mxCell><mxCell id="25" value="&lt;div style=&quot;background-color: rgb(43, 43, 43); font-family: &amp;quot;JetBrains Mono&amp;quot;, monospace;&quot;&gt;&lt;pre&gt;break;&lt;/pre&gt;&lt;/div&gt;" style="rounded=0;whiteSpace=wrap;html=1;fontColor=#FFFFFF;" vertex="1" parent="1"><mxGeometry x="-430" y="790" width="120" height="60" as="geometry"/></mxCell><mxCell id="26" value="Кінець" style="ellipse;whiteSpace=wrap;html=1;fontColor=#FFFFFF;" vertex="1" parent="1"><mxGeometry x="-610" y="780" width="120" height="80" as="geometry"/></mxCell><mxCell id="27" style="edgeStyle=orthogonalEdgeStyle;rounded=0;orthogonalLoop=1;jettySize=auto;html=1;entryX=0.5;entryY=1;entryDx=0;entryDy=0;fontColor=#FFFFFF;" edge="1" parent="1" source="28" target="30"><mxGeometry relative="1" as="geometry"/></mxCell><mxCell id="28" value="&lt;div style=&quot;background-color: rgb(43, 43, 43); font-family: &amp;quot;JetBrains Mono&amp;quot;, monospace;&quot;&gt;&lt;pre&gt;swapped = false;&lt;/pre&gt;&lt;/div&gt;" style="rounded=0;whiteSpace=wrap;html=1;fontColor=#FFFFFF;" vertex="1" parent="1"><mxGeometry x="-225" y="668.75" width="120" height="60" as="geometry"/></mxCell><mxCell id="29" style="edgeStyle=orthogonalEdgeStyle;rounded=0;orthogonalLoop=1;jettySize=auto;html=1;entryX=0.5;entryY=1;entryDx=0;entryDy=0;fontColor=#FFFFFF;" edge="1" parent="1" source="30" target="33"><mxGeometry relative="1" as="geometry"/></mxCell><mxCell id="30" value="&lt;div style=&quot;background-color: rgb(43, 43, 43); font-family: &amp;quot;JetBrains Mono&amp;quot;, monospace;&quot;&gt;&lt;pre&gt;end = end - 1&lt;span style=&quot;&quot;&gt;;&lt;/span&gt;&lt;/pre&gt;&lt;/div&gt;" style="rounded=0;whiteSpace=wrap;html=1;fontColor=#FFFFFF;" vertex="1" parent="1"><mxGeometry x="-225" y="558.75" width="120" height="60" as="geometry"/></mxCell><mxCell id="31" style="edgeStyle=orthogonalEdgeStyle;rounded=0;orthogonalLoop=1;jettySize=auto;html=1;entryX=1;entryY=0.5;entryDx=0;entryDy=0;fontColor=#FFFFFF;" edge="1" parent="1" source="33" target="36"><mxGeometry relative="1" as="geometry"/></mxCell><mxCell id="32" style="edgeStyle=orthogonalEdgeStyle;rounded=0;orthogonalLoop=1;jettySize=auto;html=1;entryX=0.5;entryY=1;entryDx=0;entryDy=0;fontColor=#FFFFFF;" edge="1" parent="1" source="33" target="40"><mxGeometry relative="1" as="geometry"/></mxCell><mxCell id="33" value="&lt;div style=&quot;background-color: rgb(43, 43, 43); font-family: &amp;quot;JetBrains Mono&amp;quot;, monospace;&quot;&gt;&lt;pre&gt;int i = end - &lt;span style=&quot;&quot;&gt;1&lt;/span&gt;&lt;span style=&quot;&quot;&gt;; &lt;/span&gt;i &amp;gt;= start&lt;span style=&quot;&quot;&gt;; &lt;/span&gt;i--&lt;/pre&gt;&lt;/div&gt;" style="shape=hexagon;perimeter=hexagonPerimeter2;whiteSpace=wrap;html=1;fixedSize=1;fontColor=#FFFFFF;" vertex="1" parent="1"><mxGeometry x="-276.25" y="428.75" width="222.5" height="90" as="geometry"/></mxCell><mxCell id="34" style="edgeStyle=orthogonalEdgeStyle;rounded=0;orthogonalLoop=1;jettySize=auto;html=1;entryX=1;entryY=0.5;entryDx=0;entryDy=0;fontColor=#FFFFFF;" edge="1" parent="1" source="36" target="38"><mxGeometry relative="1" as="geometry"/></mxCell><mxCell id="35" style="edgeStyle=orthogonalEdgeStyle;rounded=0;orthogonalLoop=1;jettySize=auto;html=1;exitX=1;exitY=1;exitDx=0;exitDy=0;fontColor=#FFFFFF;" edge="1" parent="1" source="36"><mxGeometry relative="1" as="geometry"><mxPoint x="-270" y="500" as="targetPoint"/></mxGeometry></mxCell><mxCell id="36" value="&lt;div style=&quot;background-color: rgb(43, 43, 43); font-family: &amp;quot;JetBrains Mono&amp;quot;, monospace;&quot;&gt;&lt;pre&gt;array[i] &amp;gt; array[i + 1]&lt;/pre&gt;&lt;/div&gt;" style="rhombus;whiteSpace=wrap;html=1;fontColor=#FFFFFF;" vertex="1" parent="1"><mxGeometry x="-490" y="421.25" width="170" height="105" as="geometry"/></mxCell><mxCell id="37" style="edgeStyle=orthogonalEdgeStyle;rounded=0;orthogonalLoop=1;jettySize=auto;html=1;entryX=0;entryY=0.75;entryDx=0;entryDy=0;fontColor=#FFFFFF;" edge="1" parent="1" source="38" target="33"><mxGeometry relative="1" as="geometry"><mxPoint x="-267" y="500" as="targetPoint"/><Array as="points"><mxPoint x="-630" y="550"/><mxPoint x="-267" y="550"/></Array></mxGeometry></mxCell><mxCell id="38" value="&lt;div style=&quot;background-color: rgb(43, 43, 43); font-family: &amp;quot;JetBrains Mono&amp;quot;, monospace;&quot;&gt;&lt;pre&gt;&lt;span style=&quot;&quot;&gt;int &lt;/span&gt;temp = array[i]&lt;span style=&quot;&quot;&gt;;&lt;br&gt;&lt;/span&gt;array[i] = array[i + &lt;span style=&quot;&quot;&gt;1&lt;/span&gt;]&lt;span style=&quot;&quot;&gt;;&lt;br&gt;&lt;/span&gt;array[i + &lt;span style=&quot;&quot;&gt;1&lt;/span&gt;] = temp&lt;span style=&quot;&quot;&gt;;&lt;br&gt;&lt;/span&gt;swapped = &lt;span style=&quot;&quot;&gt;true;&lt;/span&gt;&lt;/pre&gt;&lt;/div&gt;" style="rounded=0;whiteSpace=wrap;html=1;fontColor=#FFFFFF;" vertex="1" parent="1"><mxGeometry x="-720" y="426.25" width="180" height="95" as="geometry"/></mxCell><mxCell id="39" style="edgeStyle=orthogonalEdgeStyle;rounded=0;orthogonalLoop=1;jettySize=auto;html=1;entryX=0;entryY=0.5;entryDx=0;entryDy=0;fontColor=#FFFFFF;" edge="1" parent="1" source="40" target="10"><mxGeometry relative="1" as="geometry"/></mxCell><mxCell id="40" value="&lt;div style=&quot;background-color: rgb(43, 43, 43); font-family: &amp;quot;JetBrains Mono&amp;quot;, monospace;&quot;&gt;&lt;pre&gt;start = start + 1&lt;span style=&quot;&quot;&gt;;&lt;/span&gt;&lt;/pre&gt;&lt;/div&gt;" style="rounded=0;whiteSpace=wrap;html=1;fontColor=#FFFFFF;" vertex="1" parent="1"><mxGeometry x="-225" y="308.75" width="120" height="60" as="geometry"/></mxCell><mxCell id="41" value="Кінець" style="ellipse;whiteSpace=wrap;html=1;fontColor=#FFFFFF;" vertex="1" parent="1"><mxGeometry x="360" y="545" width="120" height="80" as="geometry"/></mxCell><mxCell id="42" value="&lt;b&gt;Так&lt;/b&gt;" style="text;html=1;align=center;verticalAlign=middle;resizable=0;points=[];autosize=1;strokeColor=none;fillColor=none;fontColor=#FFFFFF;" vertex="1" parent="1"><mxGeometry x="140" y="1038" width="40" height="30" as="geometry"/></mxCell><mxCell id="43" value="&lt;b&gt;Так&lt;/b&gt;" style="text;html=1;align=center;verticalAlign=middle;resizable=0;points=[];autosize=1;strokeColor=none;fillColor=none;fontColor=#FFFFFF;" vertex="1" parent="1"><mxGeometry x="-260" y="790" width="40" height="30" as="geometry"/></mxCell><mxCell id="44" value="&lt;b&gt;Так&lt;/b&gt;" style="text;html=1;align=center;verticalAlign=middle;resizable=0;points=[];autosize=1;strokeColor=none;fillColor=none;fontColor=#FFFFFF;" vertex="1" parent="1"><mxGeometry x="140" y="625" width="40" height="30" as="geometry"/></mxCell><mxCell id="45" value="&lt;b&gt;Так&lt;/b&gt;" style="text;html=1;align=center;verticalAlign=middle;resizable=0;points=[];autosize=1;strokeColor=none;fillColor=none;fontColor=#FFFFFF;" vertex="1" parent="1"><mxGeometry x="140" y="860" width="40" height="30" as="geometry"/></mxCell><mxCell id="46" value="&lt;b&gt;Так&lt;/b&gt;" style="text;html=1;align=center;verticalAlign=middle;resizable=0;points=[];autosize=1;strokeColor=none;fillColor=none;fontColor=#FFFFFF;" vertex="1" parent="1"><mxGeometry x="-310" y="440" width="40" height="30" as="geometry"/></mxCell><mxCell id="47" value="&lt;b&gt;Ні&lt;/b&gt;" style="text;html=1;align=center;verticalAlign=middle;resizable=0;points=[];autosize=1;strokeColor=none;fillColor=none;fontColor=#FFFFFF;" vertex="1" parent="1"><mxGeometry x="-380" y="496.25" width="40" height="30" as="geometry"/></mxCell><mxCell id="48" value="&lt;b&gt;Ні&lt;/b&gt;" style="text;html=1;align=center;verticalAlign=middle;resizable=0;points=[];autosize=1;strokeColor=none;fillColor=none;fontColor=#FFFFFF;" vertex="1" parent="1"><mxGeometry x="-170" y="398.75" width="40" height="30" as="geometry"/></mxCell><mxCell id="49" value="&lt;b&gt;Ні&lt;/b&gt;" style="text;html=1;align=center;verticalAlign=middle;resizable=0;points=[];autosize=1;strokeColor=none;fillColor=none;fontColor=#FFFFFF;" vertex="1" parent="1"><mxGeometry x="210" y="580" width="40" height="30" as="geometry"/></mxCell><mxCell id="50" value="&lt;b&gt;Ні&lt;/b&gt;" style="text;html=1;align=center;verticalAlign=middle;resizable=0;points=[];autosize=1;strokeColor=none;fillColor=none;fontColor=#FFFFFF;" vertex="1" parent="1"><mxGeometry x="-170" y="750" width="40" height="30" as="geometry"/></mxCell><mxCell id="51" value="&lt;b&gt;Ні&lt;/b&gt;" style="text;html=1;align=center;verticalAlign=middle;resizable=0;points=[];autosize=1;strokeColor=none;fillColor=none;fontColor=#FFFFFF;" vertex="1" parent="1"><mxGeometry x="-10" y="820" width="40" height="30" as="geometry"/></mxCell><mxCell id="52" value="&lt;b&gt;Ні&lt;/b&gt;" style="text;html=1;align=center;verticalAlign=middle;resizable=0;points=[];autosize=1;strokeColor=none;fillColor=none;fontColor=#FFFFFF;" vertex="1" parent="1"><mxGeometry x="215.63" y="950" width="40" height="30" as="geometry"/></mxCell></root></mxGraphModel></diagram></mxfile>